<?xml version="1.0" ?><svg id="Capa_1" style="enable-background:new 0 0 512 512;" version="1.1" viewBox="0 0 512 512" xml:space="preserve" xmlns="http://www.w3.org/2000/svg" xmlns:xlink="http://www.w3.org/1999/xlink"><g><g><path d="M407,0H105C47.103,0,0,47.103,0,105v302c0,57.897,47.103,105,105,105h302c57.897,0,105-47.103,105-105V105    C512,47.103,464.897,0,407,0z M91,292H61v-72h30V292z M151,372h-30V140h30V372z M211,452h-30V60h30V452z M271,292h-30v-72h30V292z     M331,352h-30V160h30V352z M391,302h-30v-92h30V302z M451,272h-30v-32h30V272z"/></g></g><g/><g/><g/><g/><g/><g/><g/><g/><g/><g/><g/><g/><g/><g/><g/></svg>