<svg xmlns="http://www.w3.org/2000/svg" width="512" height="512" viewBox="0 0 512 512">
                <defs>
                    <linearGradient id="waveGradient" x1="0%" y1="100%" x2="100%" y2="0%">
                        <stop offset="0%" style="stop-color:#0066ff;stop-opacity:1" />
                        <stop offset="50%" style="stop-color:#00ccff;stop-opacity:1" />
                        <stop offset="100%" style="stop-color:#00ffcc;stop-opacity:1" />
                    </linearGradient>
                    <filter id="glow">
                        <feGaussianBlur stdDeviation="3" result="coloredBlur"/>
                        <feMerge>
                            <feMergeNode in="coloredBlur"/>
                            <feMergeNode in="SourceGraphic"/>
                        </feMerge>
                    </filter>
                </defs>
                <path d="M51.2,460.8 C76.8,409.6 102.4,384 128,409.6 C153.6,435.2 179.2,460.8 204.8,435.2 C230.4,409.6 256,358.4 281.6,384 C307.2,409.6 332.8,460.8 358.4,435.2 C384,409.6 409.6,332.8 435.2,358.4 C460.8,384 486.4,460.8 512,435.2" 
                      stroke="url(#waveGradient)" stroke-width="15" fill="none" stroke-linecap="round" stroke-linejoin="round" filter="url(#glow)" />
                <path d="M51.2,460.8 C76.8,409.6 102.4,384 128,409.6 C153.6,435.2 179.2,460.8 204.8,435.2 C230.4,409.6 256,358.4 281.6,384 C307.2,409.6 332.8,460.8 358.4,435.2 C384,409.6 409.6,332.8 435.2,358.4 C460.8,384 486.4,460.8 512,435.2" 
                      stroke="url(#waveGradient)" stroke-width="10" fill="none" stroke-linecap="round" stroke-linejoin="round" opacity="0.7" />
                <path d="M51.2,460.8 C76.8,409.6 102.4,384 128,409.6 C153.6,435.2 179.2,460.8 204.8,435.2 C230.4,409.6 256,358.4 281.6,384 C307.2,409.6 332.8,460.8 358.4,435.2 C384,409.6 409.6,332.8 435.2,358.4 C460.8,384 486.4,460.8 512,435.2" 
                      stroke="url(#waveGradient)" stroke-width="5" fill="none" stroke-linecap="round" stroke-linejoin="round" opacity="0.4" />
                <circle cx="102" cy="435" r="5" fill="white" opacity="0.8" />
                <circle cx="153" cy="460" r="5" fill="white" opacity="0.8" />
                <circle cx="204" cy="435" r="5" fill="white" opacity="0.8" />
                <circle cx="255" cy="384" r="5" fill="white" opacity="0.8" />
                <circle cx="306" cy="409" r="5" fill="white" opacity="0.8" />
                <circle cx="357" cy="460" r="5" fill="white" opacity="0.8" />
                <circle cx="408" cy="384" r="5" fill="white" opacity="0.8" />
                <circle cx="459" cy="409" r="5" fill="white" opacity="0.8" />
            </svg>